<?xml version="1.0" encoding="UTF-8" standalone="no"?>
<svg width="98px" height="134px" viewBox="0 0 98 134" version="1.1" xmlns="http://www.w3.org/2000/svg" xmlns:xlink="http://www.w3.org/1999/xlink">
    <!-- Generator: Sketch 41.2 (35397) - http://www.bohemiancoding.com/sketch -->
    <title>Page 1</title>
    <desc>Created with Sketch.</desc>
    <defs>
        <rect id="path-1" x="0" y="0" width="263" height="263"></rect>
        <mask id="mask-2" maskContentUnits="userSpaceOnUse" maskUnits="objectBoundingBox" x="0" y="0" width="263" height="263" fill="white">
            <use xlink:href="#path-1"></use>
        </mask>
        <polygon id="path-3" points="83 197.68447 180.472175 197.68447 180.472175 64.5726496 83 64.5726496"></polygon>
    </defs>
    <g id="Design---Style-Guide" stroke="none" stroke-width="1" fill="none" fill-rule="evenodd">
        <g id="Atoms_1" transform="translate(-1109.000000, -2114.000000)">
            <g id="Page-1" transform="translate(1109.000000, 2114.000000)">
                <g id="Group-108" transform="translate(0.000000, 0.257120)"></g>
            </g>
            <g id="Group-15" transform="translate(1026.000000, 2050.000000)">
                <use id="Rectangle-Copy-3" stroke="#979797" mask="url(#mask-2)" stroke-width="2" xlink:href="#path-1"></use>
                <polygon id="Fill-1" fill="#221F20" points="164.043822 132.440385 164.688559 132.440385 164.688559 134.382813 165.231857 134.382813 165.231857 132.440385 165.88691 132.440385 165.88691 131.985129 164.043822 131.985129"></polygon>
                <path d="M167.917802,131.9849 L167.661054,132.781456 C167.583112,133.047165 167.502305,133.364985 167.433533,133.642148 L167.423218,133.642148 C167.369346,133.36155 167.294843,133.063199 167.219194,132.784891 L166.98537,131.9849 L166.260972,131.9849 L166.108527,134.383156 L166.610563,134.383156 L166.653545,133.472071 C166.670738,133.172575 166.6822,132.803216 166.697101,132.479097 L166.703405,132.479097 C166.760142,132.792909 166.842095,133.133635 166.920036,133.415379 L167.177358,134.343071 L167.600878,134.343071 L167.893732,133.407934 C167.984855,133.127336 168.084574,132.784891 168.160796,132.479097 L168.170539,132.479097 C168.170539,132.82784 168.182001,133.177156 168.192317,133.464626 L168.228995,134.383156 L168.758539,134.383156 L168.626153,131.9849 L167.917802,131.9849 Z" id="Fill-2" fill="#221F20"></path>
                <path d="M127.647425,125.999509 L127.647425,125.999509 C127.646851,126.000082 127.639974,126.008672 127.637109,126.011535 C127.636536,126.012108 127.636536,126.01268 127.636536,126.01268 C127.623354,126.026997 127.614185,126.034441 127.611892,126.036732 L127.611319,126.036732 C127.611319,126.037304 127.611319,126.037304 127.610746,126.037304 C127.215308,126.213108 123.438582,124.447629 122.942278,124.273544 C122.840267,124.238039 122.776653,124.140116 122.735963,124.026732 C122.710173,123.953432 122.693553,123.873262 122.684384,123.79939 C122.683811,123.794809 122.66891,123.624732 122.507296,123.482715 C122.292384,123.294885 121.993226,123.319509 121.993226,123.319509 L121.992653,123.319509 L115.66277,125.574603 C115.66277,125.574603 115.667354,125.585484 115.669074,125.589492 C115.773951,125.824279 115.98084,126.031005 116.165951,126.093997 C116.353354,126.158706 116.568267,126.118621 116.851378,126.08827 L116.851951,126.08827 C117.180337,126.054484 119.505401,125.788202 120.441846,125.783048 C120.44643,125.783048 120.751319,125.776176 120.926115,125.784193 C121.01208,125.785338 121.329577,125.799082 121.523284,125.841458 C121.765705,125.894715 121.825308,125.963432 121.828746,125.967441 C122.348547,126.467364 125.99346,130.721578 126.355085,131.084065 C127.076044,131.808467 127.994723,131.817056 128.643471,131.139039 L133.127974,126.454766 L132.233939,119.671732 C132.233939,119.671732 128.137425,125.408535 127.647998,125.999509 L127.647425,125.999509 Z" id="Fill-4" fill="#00A84F"></path>
                <path d="M124.884168,114.676166 L97.9576655,96.3645504 C97.9576655,96.3645504 92.5309871,102.069858 91.3171626,103.378362 C90.9830456,103.737986 90.6701333,104.23161 90.6678409,104.73726 C90.6649754,105.388362 91.1114199,105.935815 91.7160398,106.181482 C91.8679111,106.243328 117.13128,115.519679 117.132999,115.520251 L124.884168,114.676166 Z" id="Fill-6" fill="#F37820"></path>
                <path d="M111.557257,116.12726 C111.557257,116.12726 100.996754,114.627491 100.90907,114.617183 C99.7382281,114.451687 99.103807,114.211747 98.849924,113.908815 C98.4040526,113.377969 98.1364152,113.087063 97.801152,113.005174 C97.2836433,112.879191 96.9564035,112.940465 96.8131287,112.964516 C96.7162749,112.981123 95.8422982,113.223926 95.1052924,113.314978 C94.0553743,113.445542 92.2873626,113.588704 92.2873626,113.588704 C91.7560994,113.632226 91.2076433,113.762217 90.9199474,113.875602 C90.6568947,113.979251 90.606462,114.266149 90.8362749,114.428209 C90.952614,114.511243 91.1491871,114.59714 91.442614,114.676166 L111.353807,119.890713 L132.233538,119.671961 L111.557257,116.12726 Z" id="Fill-8" fill="#00B0C5"></path>
                <polygon id="Fill-10" fill="#F37820" points="128.471656 117.145374 111.5572 116.127203 111.5572 116.127203 132.233481 119.671903"></polygon>
                <path d="M173.26184,109.793183 C173.235477,109.777721 173.202811,109.768559 173.173009,109.761687 C172.998214,109.718738 172.803933,109.672926 172.634869,109.634559 C172.465805,109.596191 171.335653,109.349379 170.332156,109.134636 C167.081536,108.438867 162.030811,107.384619 161.928799,107.359422 C161.723056,107.298149 158.22543,106.062944 158.22543,106.062944 L154.927243,107.788909 L154.927243,107.788909 L154.927243,107.788909 C154.927243,107.788909 160.300623,109.138644 161.719618,109.469636 C161.896705,109.512012 162.013044,109.536063 162.052015,109.543508 C162.331115,109.593328 162.824553,109.631123 163.210249,109.663764 C164.059582,109.735345 167.992191,110.035414 170.473138,110.189456 C171.435945,110.249585 172.176389,110.288525 172.425688,110.285089 C172.706506,110.281653 172.913395,110.273636 173.06584,110.259892 C173.146647,110.252448 173.232039,110.247294 173.296799,110.191174 C173.315711,110.174568 173.332331,110.155097 173.346085,110.133337 C173.356974,110.115012 173.365571,110.096115 173.371875,110.076072 C173.402822,109.969559 173.35812,109.850448 173.26184,109.793183" id="Fill-12" fill="#ED2A7B"></path>
                <path d="M157.426301,105.779196 L153.710324,103.561897 L157.095049,104.993521 C157.095049,104.993521 157.452663,105.142409 157.50195,105.159589 C157.993669,105.332529 158.174195,105.230597 158.561037,104.839478 C158.902605,104.494743 160.540523,102.280307 159.149611,100.272025 C158.815494,99.8293667 157.426301,98.4492812 155.758008,98.8804863 C154.408932,99.2292299 153.836979,100.273743 153.754453,100.436375 C153.647283,100.575529 153.252418,101.177384 153.252418,101.177384 L151.740008,101.092059 L138.409716,113.743033 L134.891458,113.307247 L132.233996,119.671674 L142.569844,114.258418 L149.895774,108.854897 L153.58023,107.804657 L154.927587,107.788623 L154.927587,107.788623 L158.225774,106.062657 L157.426301,105.779196 Z" id="Fill-14" fill="#F37820"></path>
                <path d="M126.355257,131.084351 C125.993632,130.721864 122.348146,126.467078 121.828918,125.967155 C121.82548,125.963719 121.765877,125.895001 121.522883,125.841744 C121.329749,125.798796 121.012251,125.785052 120.926287,125.783907 C120.750918,125.776462 120.446602,125.783334 120.441444,125.783334 C119.505573,125.788488 117.180509,126.05477 116.852123,126.088556 L116.85155,126.088556 C116.568439,126.118907 116.353526,126.158992 116.166123,126.09371 C115.981012,126.030719 115.774123,125.823992 115.669246,125.589779 C115.667526,125.58577 115.662942,125.57489 115.662942,125.57489 C115.661222,125.570881 106.22514,128.936915 106.22514,128.936915 C106.22514,128.936915 122.708626,135.76118 122.748743,135.777215 C123.051912,135.900334 123.389468,135.948437 123.71155,135.882009 C124.041655,135.813864 124.348836,135.618591 124.582088,135.377505 C124.605012,135.354026 128.64307,131.138753 128.64307,131.138753 C127.994322,131.817343 127.076216,131.808753 126.355257,131.084351" id="Fill-16" fill="#99CA3C"></path>
                <path d="M137.252513,124.676002 L136.016911,123.444232 L133.12849,126.454651 C133.12849,126.454651 134.022525,133.252002 134.18987,134.520993 C134.228841,134.817626 134.279274,135.094215 134.439168,135.35248 C134.755519,135.862711 135.349823,136.160489 135.947566,136.109523 C135.993414,136.103224 147.145356,134.540463 147.145356,134.540463 L137.252513,124.676002 Z" id="Fill-18" fill="#00A84F"></path>
                <polygon id="Fill-20" fill="#99CA3C" points="136.017026 123.444061 132.233996 119.672018 133.128032 126.455052"></polygon>
                <path d="M173.495607,109.463222 C173.495607,109.236453 173.448613,109.021137 173.363794,108.825863 C173.344882,108.788068 169.173291,100.331752 169.173291,100.331752 L158.225946,106.062829 C158.225946,106.062829 161.722999,107.298034 161.928742,107.359308 C162.030753,107.384504 167.082051,108.439325 170.332098,109.134521 C171.335595,109.349265 172.465747,109.596077 172.634812,109.634444 C172.803876,109.672812 172.998157,109.719197 173.172952,109.761573 C173.202753,109.769017 173.23542,109.777607 173.261782,109.793068 C173.358063,109.850333 173.402765,109.969444 173.371818,110.075957 C173.401619,110.004376 173.428554,109.931077 173.447467,109.854342 C173.478987,109.729504 173.495607,109.598368 173.495607,109.463222" id="Fill-22" fill="#99CA3C"></path>
                <polygon id="Fill-24" fill="#ED2A7B" points="142.569787 114.258132 132.233939 119.671961 151.926781 115.417747"></polygon>
                <path d="M173.296856,110.191117 C173.232096,110.247237 173.146704,110.252391 173.065897,110.259835 C172.913453,110.273579 172.706564,110.281596 172.425745,110.285032 C172.176447,110.288468 171.436002,110.249527 170.473195,110.189399 C167.992248,110.035356 164.05964,109.735288 163.210306,109.663707 C162.824611,109.631066 162.331172,109.593844 162.052073,109.54345 C162.013102,109.536006 161.896763,109.511955 161.719675,109.469579 C160.300681,109.138587 154.927301,107.788852 154.927301,107.788852 L142.569558,114.258074 L142.569558,114.258074 L151.926552,115.41769 L151.927125,115.41769 C151.927125,115.41769 171.8664,111.127399 172.313418,111.005425 C172.761581,110.884023 173.097418,110.603425 173.303733,110.223185 C173.31978,110.19398 173.332961,110.16363 173.346143,110.133279 C173.332388,110.15504 173.315768,110.17451 173.296856,110.191117" id="Fill-26" fill="#99CA3C"></path>
                <path d="M147.75393,85.945535 C147.754503,85.9432444 147.755649,85.9409538 147.756222,85.9386632 C148.020421,85.2726718 148.182035,84.5969453 148.303532,83.891441 C148.594094,82.216441 148.60269,80.5265521 148.60269,80.5265521 L136.160702,110.193809 L139.008433,107.646663 L147.144725,87.4567573 C147.411216,86.7942017 147.620971,86.2753812 147.75393,85.945535" id="Fill-28" fill="#F37820"></path>
                <path d="M160.922035,90.7658701 C160.826901,90.5826222 160.696234,90.4182718 160.535766,90.2865624 C159.88014,89.7488444 148.60269,80.5268957 148.60269,80.5268957 C148.60269,80.5268957 148.594094,82.216212 148.303532,83.891212 C148.182035,84.5972889 148.020421,85.2724427 147.756222,85.9390068 C147.755649,85.9407248 147.754503,85.943588 147.75393,85.945306 C147.620971,86.2757248 147.411216,86.7945453 147.144725,87.4571009 L139.008433,107.646434 C139.008433,107.646434 140.289883,106.557827 141.509439,105.474947 C141.806304,105.211528 142.10145,104.946391 142.394877,104.678964 C142.784585,104.324494 143.172,103.966588 143.568012,103.61899 C143.962877,103.272537 144.450585,103.074973 144.944023,102.908904 C146.482795,102.39352 148.818175,101.788229 150.291041,101.421733 L150.291614,101.421733 C150.910561,101.278571 151.739836,101.091887 151.739836,101.091887 C151.739836,101.091887 160.599953,92.6819556 160.601673,92.6802376 C161.118608,92.1894769 161.253287,91.4015111 160.922035,90.7658701" id="Fill-30" fill="#FFD400"></path>
                <path d="M151.739836,101.092002 C151.739836,101.092002 150.910561,101.278685 150.291614,101.421848 L150.291041,101.421848 C148.818175,101.788344 146.482795,102.393634 144.944023,102.909019 C144.450585,103.075087 143.962877,103.272651 143.568012,103.619104 C143.172,103.966703 142.784585,104.324036 142.394877,104.679079 C142.10145,104.946506 141.806877,105.211643 141.509439,105.475062 C140.290456,106.557942 139.008433,107.646549 139.008433,107.646549 L136.160129,110.194267 L134.89186,113.306617 L134.89186,113.30719 L138.409544,113.742976 L151.739836,101.092002 Z" id="Fill-32" fill="#ED2A7B"></path>
                <path d="M121.993226,123.319395 C121.993226,123.319395 122.292384,123.295344 122.507296,123.4826 C122.66891,123.624617 122.683811,123.795267 122.684384,123.799275 C122.694126,123.873147 122.710173,123.953318 122.736536,124.026617 C122.776653,124.140002 122.840267,124.237925 122.942278,124.273429 C123.438582,124.447515 127.215308,126.212993 127.610746,126.037762 C127.611319,126.03719 127.611319,126.03719 127.611319,126.036617 L127.611892,126.036617 C127.614758,126.034326 127.623354,126.026882 127.636536,126.012566 C127.636536,126.012566 127.636536,126.011993 127.637109,126.011421 C127.639974,126.008557 127.646851,125.999968 127.647425,125.999395 L127.647998,125.999395 C128.137425,125.408993 132.233939,119.671617 132.233939,119.671617 L121.992653,123.319395 L121.993226,123.319395 Z" id="Fill-34" fill="#99CA3C"></path>
                <path d="M119.516233,122.326478 L119.51566,122.326478 L123.479788,122.789751 C126.304022,121.784179 132.233882,119.671674 132.233882,119.671674 L119.516233,122.326478 Z" id="Fill-36" fill="#00B0C5"></path>
                <path d="M111.353578,119.890598 L90.5655427,120.108205 C90.5655427,120.108205 94.6740924,124.907581 95.836338,126.263615 C95.922876,126.363829 96.0254608,126.458316 96.1200222,126.551658 C96.4512737,126.878068 96.9647708,127.021803 97.4845719,126.925598 L119.516233,122.32665 L132.233882,119.671846 L111.353578,119.890598 Z" id="Fill-38" fill="#0074B6"></path>
                <path d="M156.89286,123.443316 C156.845865,123.879675 156.762766,124.332068 156.577655,124.732923 C156.461889,124.983171 156.312883,124.994624 156.161012,124.880094 C156.161012,124.880094 156.159865,124.880094 156.159865,124.879521 C155.872743,124.670504 155.240041,124.238154 154.766661,123.960991 C153.419304,123.173026 152.610088,122.966299 152.596906,122.965154 C152.596906,122.965154 153.875491,123.825846 154.702474,124.436291 C154.703047,124.436863 154.70362,124.436863 154.704193,124.437436 C154.721959,124.450034 157.087713,126.163402 157.092871,126.166265 C157.359936,126.347222 157.661959,126.370128 158.197807,126.47206 C158.348532,126.501265 160.831199,126.996034 162.411234,127.300111 C164.197012,127.643701 166.506602,128.160231 166.517491,128.163094 L166.517491,128.163094 C169.078099,126.14565 171.649023,124.121333 171.649023,124.121333 L156.888275,122.448624 C156.928965,122.745829 156.930111,123.094573 156.89286,123.443316" id="Fill-40" fill="#0074B6"></path>
                <path d="M157.263483,128.692623 C157.147717,128.664563 156.332196,128.391409 156.007249,128.280315 C154.701729,127.833076 153.421998,127.302803 152.142267,126.787991 C151.124442,126.378546 150.086559,125.988572 149.013717,125.750922 C148.440618,125.623794 147.691004,125.479486 147.599308,125.467461 C147.76608,125.581418 148.007354,125.690794 148.309951,125.80876 C148.567846,125.909546 150.197167,126.434093 150.197167,126.434093 C150.197167,126.434093 150.111202,126.469597 149.900875,126.52629 C149.328349,126.681478 148.72774,126.7857 148.146044,126.866444 C147.583834,126.944324 147.019331,127.010179 146.453109,127.051409 L157.627401,132.864948 C159.326641,133.715332 159.928968,133.40782 161.440232,132.162879 C161.450547,132.154862 163.015109,130.921375 164.913214,129.426187 C164.892009,129.423897 164.867366,129.422179 164.796302,129.415307 C163.882208,129.333418 157.551752,128.763059 157.263483,128.692623" id="Fill-42" fill="#0074B6"></path>
                <path d="M173.02578,116.666066 L168.32923,117.228408 L168.319488,117.230698 L167.400236,117.334348 C167.208248,117.335493 155.70557,115.874664 151.926552,115.41769 L132.23371,119.671903 L138.900575,120.423792 L144.300891,119.853433 L153.001113,118.860459 C153.867067,118.882792 154.729581,119.075203 154.729581,119.075203 L155.969195,119.355801 C156.92226,119.568826 158.4404,119.607767 158.564763,119.61063 L158.577371,119.61063 L164.818423,119.866604 C164.840774,119.867177 166.005312,119.904399 166.856365,120.369391 L166.947488,120.420356 L166.947488,120.420929 C167.24378,120.584134 167.54695,120.601886 167.812295,120.562946 C168.286248,120.513698 168.65647,120.262878 168.675382,120.248562 L169.567698,119.624374 C170.074891,119.266468 172.645242,117.990032 172.645242,117.990032 C173.141546,117.787886 173.403453,117.503852 173.577102,117.312587 L173.76164,117.115596 C174.049336,116.802356 173.914084,116.564707 173.02578,116.666066" id="Fill-44" fill="#00A84F"></path>
                <polygon id="Fill-46" fill="#0074B6" points="138.900289 120.424079 132.233423 119.671617 136.017026 123.444232"></polygon>
                <path d="M169.381613,129.043715 C168.909379,128.84386 167.957461,128.523176 166.517835,128.162979 L166.517835,128.162979 C166.506946,128.160116 164.196782,127.644159 162.411005,127.299997 C160.83097,126.99592 158.348303,126.501723 158.197578,126.471945 C157.66173,126.370014 157.36028,126.347108 157.092642,126.16615 C157.088057,126.163287 154.72173,124.450492 154.703964,124.437321 C154.703391,124.436749 154.703391,124.436749 154.702244,124.436749 C153.875262,123.826304 152.596677,122.965039 152.596677,122.965039 C152.609858,122.966185 153.419075,123.172911 154.766432,123.960877 C155.240385,124.238039 155.872513,124.670962 156.160209,124.879407 C156.160209,124.879979 156.161356,124.879979 156.161356,124.879979 C156.312654,124.994509 156.46166,124.983629 156.577426,124.732809 C156.762537,124.331954 156.846209,123.879561 156.89263,123.443202 C156.930455,123.094458 156.929309,122.745715 156.888046,122.448509 C156.808385,121.864407 156.492034,121.334706 156.0198,120.984244 C155.50573,120.60286 154.847812,120.406441 154.217975,120.334287 C153.944607,120.303364 153.668946,120.304509 153.395578,120.329706 C152.848268,120.380672 152.311274,120.589689 151.864829,120.908655 C151.65794,121.056971 151.483145,121.241937 151.327835,121.442364 L151.066502,121.787099 C151.066502,121.787099 150.872221,121.60786 150.531227,121.359903 C149.131145,120.211168 148.727683,119.923125 146.682291,119.88533 C145.333215,119.867005 144.301063,119.853262 144.301063,119.853262 L138.900174,120.424193 L136.016911,123.443774 L137.252513,124.676116 C138.457168,124.922356 139.730595,125.381621 140.824642,125.840313 C141.473964,126.111176 142.069414,126.383757 142.571449,126.613962 C143.027636,126.822979 143.405882,126.996492 143.678677,127.104723 C143.926256,127.120757 144.20249,127.124193 144.522853,127.119612 C145.218022,127.120757 145.864478,127.094415 146.453051,127.051467 L146.453625,127.051467 C147.019274,127.010236 147.58435,126.944381 148.145987,126.866501 C148.728256,126.785757 149.328291,126.680962 149.901391,126.526347 C150.111718,126.469655 150.19711,126.43415 150.19711,126.43415 C150.19711,126.43415 148.567788,125.909603 148.309894,125.808817 C148.007297,125.690851 147.766595,125.581475 147.59925,125.466945 C147.690946,125.479544 148.44056,125.623851 149.01366,125.750979 C150.086502,125.988629 151.124958,126.378603 152.142209,126.788048 C153.42194,127.30286 154.701671,127.832561 156.007192,128.2798 C156.332712,128.391467 157.14766,128.664048 157.263426,128.69268 C157.551695,128.763116 163.882151,129.333475 164.796244,129.415364 C164.867309,129.421663 164.891952,129.423954 164.913157,129.426244 L164.913157,129.426244 C167.741402,129.793885 168.856081,130.071048 169.702549,130.253723 C170.705473,130.470757 170.744443,130.206766 170.76049,130.1558 C170.797168,130.036689 170.731262,129.612928 169.381613,129.043715" id="Fill-48" fill="#00B0C5"></path>
                <path d="M99.7385146,88.9253171 C100.945462,90.0706162 106.612269,95.4180179 126.737228,114.472932 L128.893801,114.237574 C128.474865,113.854471 103.93876,91.3905735 103.558222,91.0584368 C103.152468,90.7039667 102.072749,90.1393342 102.038936,90.1210094 C101.586187,89.8724795 99.7390877,88.9258897 99.7385146,88.9253171" id="Fill-50" fill="#F37820"></path>
                <path d="M125.173985,99.7237128 L125.173985,99.7237128 C125.175131,99.7242855 125.174558,99.7237128 125.173985,99.7237128" id="Fill-52" fill="#FFD400"></path>
                <path d="M127.754938,97.1063607 L122.297885,91.410788 C122.297885,91.410788 125.174271,99.7233692 125.174271,99.7239419 L125.174271,99.7239419 L129.573382,107.849839 L127.754938,97.1063607 Z" id="Fill-54" fill="#F37820"></path>
                <path d="M125.174099,99.7237701 C125.174099,99.7231974 122.297713,91.4111889 122.297713,91.4111889 L119.514743,88.7581034 C119.514743,88.7581034 118.960556,88.2306932 118.272836,87.9403598 C117.769655,87.7221803 116.81831,87.3150265 115.697327,86.8534709 C114.227327,86.2498983 112.470205,85.5547017 111.067257,85.0822658 C111.006509,85.0622231 110.726836,84.9700265 110.603047,84.9310863 C109.947994,84.7226419 108.471117,84.2691034 108.192591,84.2032487 C107.999456,84.1580094 106.78907,83.9696077 106.645795,83.9444111 C106.509971,83.9203598 105.840018,83.8012487 105.554614,83.7863598 C105.439421,83.7800607 105.364918,83.7903684 105.312766,83.8018214 C105.276661,83.8098385 105.253164,83.8201462 105.239409,83.8270179 C105.20445,83.8436248 105.171211,83.8734026 105.173503,83.9066162 C105.183246,84.0411889 105.512205,84.2656675 105.89962,84.4271547 C106.265257,84.5800521 106.607398,84.7020265 106.608544,84.7020265 C108.212076,85.3055991 117.110018,89.3811462 117.110591,89.3811462 C117.110591,89.3811462 117.557035,89.7075564 118.228708,90.3987444 C119.743982,91.9580692 123.574579,97.3547188 123.574579,97.3547188 C123.57286,97.3552915 123.550509,97.3615906 123.500649,97.3461291 C123.401503,97.3157786 123.261667,97.192659 123.254789,97.1863598 C123.228427,97.1640265 123.164813,97.1021803 123.074836,97.012847 C122.544719,96.4888726 121.09707,95.0131547 120.937749,94.8510949 C120.93431,94.847659 120.830579,94.7411462 120.699912,94.6770094 C120.376111,94.5189581 120.055175,94.6787274 119.754871,95.2634026 C119.518754,95.7220949 119.420181,96.3027615 119.418462,96.8714026 C119.417316,97.516206 119.540532,98.1449752 119.730228,98.5635821 C120.341725,99.9093085 121.372731,100.383462 121.393363,100.39377 C121.978497,100.690403 122.659912,100.799779 123.373994,100.590762 C124.559737,100.253471 124.915632,99.6149667 125.174099,99.7237701 L125.174099,99.7237701 L125.174099,99.7237701 C125.175246,99.7243427 125.174673,99.7237701 125.174099,99.7237701" id="Fill-56" fill="#ED1C24"></path>
                <path d="M129.573211,107.849782 L125.174099,99.7238846 L125.174099,99.7238846 L125.174099,99.7238846 C124.915632,99.6150812 124.559737,100.253585 123.373994,100.590876 C122.659912,100.799893 121.978497,100.690517 121.393363,100.393312 C121.372731,100.383577 120.341725,99.9088504 119.730228,98.5631239 C119.540532,98.1450897 119.417316,97.5163205 119.418462,96.8715171 C119.420181,96.3023034 119.518754,95.7216368 119.754871,95.2635171 C120.055175,94.6788419 120.376111,94.5190726 120.699912,94.6771239 C120.830579,94.7412607 120.93431,94.8477735 120.937749,94.8506368 C121.09707,95.0132692 122.544719,96.4884145 123.074836,97.0129615 C123.164813,97.1022949 123.228427,97.1635684 123.254789,97.1864744 C123.261667,97.1927735 123.401503,97.3158932 123.500649,97.3462436 C123.550509,97.3617051 123.57286,97.355406 123.574579,97.3548333 C123.574579,97.3548333 119.743982,91.9581838 118.228708,90.398859 C117.557035,89.7070983 117.110591,89.3812607 117.110591,89.3812607 C117.110018,89.380688 108.212076,85.3057137 106.608544,84.702141 C106.607398,84.702141 106.265257,84.5801667 105.89962,84.4272692 C105.512205,84.2657821 105.183246,84.0413034 105.173503,83.9067308 C105.171211,83.8735171 105.20445,83.8437393 105.239409,83.8271325 C105.253164,83.8202607 105.276661,83.809953 105.312766,83.8019359 C105.364918,83.7904829 105.439421,83.7801752 105.554041,83.7864744 C105.840018,83.8013632 106.509971,83.9199017 106.645795,83.9445256 C106.78907,83.9697222 107.998883,84.1575513 108.192591,84.2033632 C108.471117,84.2692179 109.947994,84.7227564 110.603047,84.9306282 C110.726836,84.970141 111.006509,85.0623376 111.067257,85.0823803 C112.470205,85.5542436 114.227327,86.2494402 115.697327,86.8530128 C116.81831,87.315141 117.769655,87.7222949 118.272836,87.9404744 C118.960556,88.2308077 119.514743,88.7582179 119.514743,88.7582179 L122.297713,91.4113034 L117.597725,77.9998504 C117.597725,77.9998504 100.075784,86.2620385 100.056298,86.2706282 C99.5324854,86.5329017 99.1737251,87.0740556 99.1737251,87.6988162 C99.1737251,88.130594 99.4602749,88.6379615 99.7382281,88.9254316 C99.7393743,88.9260043 101.585901,89.8720214 102.038649,90.1211239 C102.072462,90.1394487 103.152754,90.7040812 103.558509,91.0585513 C103.938474,91.390688 128.475152,113.854585 128.894088,114.237688 L130.522836,113.459457 L129.573211,107.849782 Z" id="Fill-58" fill="#FFD400"></path>
                <path d="M139.054338,76.7186615 L125.095356,73.2924991 C125.095356,73.2924991 123.071168,64.8917299 123.068303,64.8791316 C123.029905,64.7039009 122.874022,64.5727641 122.686619,64.5727641 C122.471133,64.5727641 122.296338,64.7479949 122.296338,64.9633111 C122.296338,64.9747641 122.303788,65.0411915 122.309519,65.0623795 C122.421847,65.7197812 127.75511,97.1061316 127.75511,97.1061316 L134.293028,101.141021 C135.131473,101.65755 135.324607,101.941012 135.424899,102.486747 C135.467309,102.718097 135.474186,103.074858 135.474186,103.074858 L135.687952,108.194918 C135.687952,108.194918 140.200537,79.3322342 140.301402,78.6181402 C140.377625,78.0798496 140.312291,77.7568752 140.058981,77.3857983 C139.852092,77.0817214 139.502502,76.8492256 139.054338,76.7186615" id="Fill-60" fill="#F37820"></path>
                <path d="M135.42467,102.486804 C135.324378,101.941069 135.131243,101.657608 134.292799,101.141078 L127.754881,97.1061889 L129.573325,107.849668 L130.522951,113.459343 L128.894202,114.237574 L126.737056,114.472932 L117.133056,115.520309 L111.557372,116.127317 L128.471828,117.145488 L132.233653,119.672018 L134.891688,113.307018 L134.902577,113.236009 L134.90315,113.234864 C134.90315,113.232574 135.687723,108.194975 135.687723,108.194975 L135.47453,103.074915 C135.47453,103.074915 135.46708,102.718155 135.42467,102.486804" id="Fill-62" fill="#ED1C24"></path>
                <path d="M128.736428,191.566568 C123.568218,190.727637 119.72444,187.995526 119.510674,184.84309 L113.694861,184.84309 C113.784837,188.319645 120.257995,191.202936 128.794884,191.822543 L128.736428,191.566568" id="Fill-64" fill="#221F20"></path>
                <path d="M144.956861,184.843204 C144.743095,187.995068 140.899317,190.726033 135.736837,191.566683 L135.676089,191.822657 C144.210112,191.201332 150.682697,188.317469 150.769235,184.843204 L144.956861,184.843204" id="Fill-66" fill="#221F20"></path>
                <polygon id="Fill-68" fill="#221F20" points="153.797378 183.085056 154.242103 181.159808 110.233226 181.159808 110.675085 183.08391"></polygon>
                <polygon id="Fill-70" fill="#E0393D" points="130.602841 195.020791 130.602841 184.844235 128.092092 184.844235 130.442946 195.020791"></polygon>
                <polygon id="Fill-72" fill="#0081C3" points="134.025849 195.020791 136.378422 184.844235 133.867674 184.844235 133.867674 195.020791"></polygon>
                <polygon id="Fill-74" fill="#FBB130" points="132.315549 197.68447 133.482379 184.843376 130.98825 184.843376 132.155654 197.68447"></polygon>
                <path d="M95.5864094,178.074715 L95.1938363,177.293621 C95.0339415,176.99069 94.9313567,176.767356 94.8098596,176.517109 L94.7972515,176.517109 C94.7067018,176.767356 94.598386,176.99069 94.4625614,177.293621 L94.1038012,178.074715 L92.9879766,178.074715 L94.2384795,175.890057 L93.0321053,173.754074 L94.1559532,173.754074 L94.5336257,174.543758 C94.6631462,174.806604 94.7582807,175.017339 94.8608655,175.261861 L94.8734737,175.261861 C94.9760585,174.985271 95.0603041,174.792861 95.1686199,174.543758 L95.5348304,173.754074 L96.6512281,173.754074 L95.4310994,175.863143 L96.7148421,178.074715 L95.5864094,178.074715 Z" id="Fill-76" fill="#221F20"></path>
                <path d="M99.6604585,178.074715 L99.2701778,177.293621 C99.1091368,176.99069 99.0059789,176.767356 98.8844819,176.517109 L98.8718737,176.517109 C98.7824702,176.767356 98.6735813,176.99069 98.5383298,177.293621 L98.1801427,178.074715 L97.0631719,178.074715 L98.3136749,175.890057 L97.1084468,173.754074 L98.2300023,173.754074 L98.6093942,174.543758 C98.7377684,174.806604 98.833476,175.017339 98.9354877,175.261861 L98.948669,175.261861 C99.0524,174.985271 99.1354994,174.792861 99.2438152,174.543758 L99.6094526,173.754074 L100.726996,173.754074 L99.5062947,175.863143 L100.790037,178.074715 L99.6604585,178.074715 Z" id="Fill-78" fill="#221F20"></path>
                <mask id="mask-4" fill="white">
                    <use xlink:href="#path-3"></use>
                </mask>
                <g id="Clip-81"></g>
                <polygon id="Fill-80" fill="#221F20" mask="url(#mask-4)" points="101.30193 178.074658 102.284222 178.074658 102.284222 173.754017 101.30193 173.754017"></polygon>
                <path d="M107.59949,177.953485 C107.419537,178.042819 107.016648,178.139024 106.490543,178.139024 C104.997046,178.139024 104.225654,177.209041 104.225654,175.97899 C104.225654,174.50499 105.277864,173.68381 106.58625,173.68381 C107.093443,173.68381 107.478566,173.786887 107.651069,173.876793 L107.452204,174.651588 C107.255057,174.569126 106.978823,174.491819 106.630952,174.491819 C105.856122,174.491819 105.252648,174.960819 105.252648,175.921152 C105.252648,176.786426 105.764426,177.331588 106.638402,177.331588 C106.933549,177.331588 107.260215,177.267451 107.452204,177.190144 L107.59949,177.953485 Z" id="Fill-82" fill="#221F20" mask="url(#mask-4)"></path>
                <path d="M108.953151,176.504338 C108.953151,177.042629 109.177806,177.446347 109.595022,177.446347 C109.973841,177.446347 110.216835,177.067826 110.216835,176.504338 C110.216835,176.035911 110.036882,175.562903 109.595022,175.562903 C109.127946,175.562903 108.953151,176.042783 108.953151,176.504338 M111.224344,176.471697 C111.224344,177.61986 110.409396,178.145552 109.56866,178.145552 C108.651701,178.145552 107.946788,177.542552 107.946788,176.530108 C107.946788,175.517663 108.613303,174.869997 109.619665,174.869997 C110.582473,174.869997 111.224344,175.530262 111.224344,176.471697" id="Fill-83" fill="#221F20" mask="url(#mask-4)"></path>
                <path d="M111.84289,175.939878 C111.84289,175.549903 111.830282,175.216049 111.817674,174.940604 L112.638352,174.940604 L112.683054,175.36322 L112.701966,175.36322 C112.836644,175.165083 113.112878,174.870168 113.650446,174.870168 C114.055627,174.870168 114.377136,175.07575 114.511814,175.401587 L114.524422,175.401587 C114.640188,175.241245 114.780025,175.114117 114.928457,175.023638 C115.102106,174.921707 115.294095,174.870168 115.525627,174.870168 C116.127954,174.870168 116.584142,175.292784 116.584142,176.228493 L116.584142,178.074715 L115.634516,178.074715 L115.634516,176.369365 C115.634516,175.915254 115.486083,175.652408 115.171451,175.652408 C114.948516,175.652408 114.788048,175.80645 114.723288,175.991416 C114.697498,176.061852 114.68489,176.164356 114.68489,176.241664 L114.68489,178.074715 L113.735264,178.074715 L113.735264,176.318972 C113.735264,175.921553 113.594855,175.652408 113.285954,175.652408 C113.034937,175.652408 112.88765,175.844245 112.830913,176.004587 C112.799393,176.081895 112.792516,176.170656 112.792516,176.247391 L112.792516,178.074715 L111.84289,178.074715 L111.84289,175.939878 Z" id="Fill-84" fill="#221F20" mask="url(#mask-4)"></path>
                <path d="M117.374618,175.939878 C117.374618,175.549903 117.362009,175.216049 117.349974,174.940604 L118.17008,174.940604 L118.214781,175.36322 L118.23484,175.36322 C118.369518,175.165083 118.644606,174.870168 119.183319,174.870168 C119.588501,174.870168 119.910009,175.07575 120.043542,175.401587 L120.056723,175.401587 C120.171343,175.241245 120.311752,175.114117 120.460758,175.023638 C120.634407,174.921707 120.825822,174.870168 121.057354,174.870168 C121.660828,174.870168 122.115296,175.292784 122.115296,176.228493 L122.115296,178.074715 L121.166243,178.074715 L121.166243,176.369365 C121.166243,175.915254 121.017811,175.652408 120.703179,175.652408 C120.480243,175.652408 120.319775,175.80645 120.255015,175.991416 C120.229226,176.061852 120.216618,176.164356 120.216618,176.241664 L120.216618,178.074715 L119.266992,178.074715 L119.266992,176.318972 C119.266992,175.921553 119.126582,175.652408 118.817682,175.652408 C118.567237,175.652408 118.420524,175.844245 118.362068,176.004587 C118.33112,176.081895 118.32367,176.170656 118.32367,176.247391 L118.32367,178.074715 L117.374618,178.074715 L117.374618,175.939878 Z" id="Fill-85" fill="#221F20" mask="url(#mask-4)"></path>
                <path d="M123.741695,176.504338 C123.741695,177.042629 123.96635,177.446347 124.382993,177.446347 C124.761812,177.446347 125.005379,177.067826 125.005379,176.504338 C125.005379,176.035911 124.825426,175.562903 124.382993,175.562903 C123.915344,175.562903 123.741695,176.042783 123.741695,176.504338 M126.012888,176.471697 C126.012888,177.61986 125.199087,178.145552 124.35835,178.145552 C123.440244,178.145552 122.734759,177.542552 122.734759,176.530108 C122.734759,175.517663 123.401847,174.869997 124.409356,174.869997 C125.370443,174.869997 126.012888,175.530262 126.012888,176.471697" id="Fill-86" fill="#221F20" mask="url(#mask-4)"></path>
                <path d="M126.631434,175.939878 C126.631434,175.549903 126.618826,175.216049 126.606791,174.940604 L127.452685,174.940604 L127.496241,175.370091 L127.516299,175.370091 C127.646393,175.170809 127.966182,174.870168 128.485411,174.870168 C129.126136,174.870168 129.608112,175.292784 129.608112,176.215895 L129.608112,178.074715 L128.631551,178.074715 L128.631551,176.337297 C128.631551,175.934151 128.492288,175.658134 128.139258,175.658134 C127.868756,175.658134 127.710007,175.844245 127.646393,176.023485 C127.618311,176.081895 127.606276,176.1781 127.606276,176.267433 L127.606276,178.074715 L126.631434,178.074715 L126.631434,175.939878 Z" id="Fill-87" fill="#221F20" mask="url(#mask-4)"></path>
                <path d="M131.008538,174.940375 L131.258982,176.222538 C131.32317,176.549521 131.38793,176.895974 131.438936,177.255025 L131.451544,177.255025 C131.515158,176.895974 131.606281,176.536922 131.682503,176.228837 L132.016047,174.940375 L132.786865,174.940375 L133.101497,176.191042 C133.184023,176.543221 133.26655,176.895974 133.331883,177.255025 L133.344491,177.255025 C133.389766,176.895974 133.452807,176.543221 133.523298,176.18417 L133.792082,174.940375 L134.749158,174.940375 L133.786924,178.074486 L132.869965,178.074486 L132.573673,176.972709 C132.498023,176.66405 132.438994,176.383452 132.375953,175.998632 L132.363345,175.998632 C132.304316,176.389179 132.240129,176.677794 132.158749,176.972709 L131.844117,178.074486 L130.927158,178.074486 L130.015357,174.940375 L131.008538,174.940375 Z" id="Fill-88" fill="#221F20" mask="url(#mask-4)"></path>
                <path d="M137.052273,176.151815 C137.052273,175.915311 136.949688,175.51732 136.500378,175.51732 C136.089465,175.51732 135.92212,175.890115 135.896904,176.151815 L137.052273,176.151815 Z M135.903781,176.818379 C135.935302,177.222097 136.33246,177.41508 136.78922,177.41508 C137.122764,177.41508 137.39212,177.369841 137.655173,177.286807 L137.782401,177.946499 C137.462039,178.074773 137.071758,178.138909 136.647091,178.138909 C135.582273,178.138909 134.973068,177.523311 134.973068,176.542935 C134.973068,175.748097 135.46708,174.870226 136.557115,174.870226 C137.572074,174.870226 137.956623,175.657619 137.956623,176.433559 C137.956623,176.600773 137.935992,176.748516 137.925103,176.818379 L135.903781,176.818379 Z" id="Fill-89" fill="#221F20" mask="url(#mask-4)"></path>
                <path d="M140.240654,176.59476 C139.72773,176.587888 139.330572,176.709862 139.330572,177.087811 C139.330572,177.338059 139.497917,177.458888 139.715122,177.458888 C139.959835,177.458888 140.157554,177.299691 140.222315,177.100409 C140.235496,177.049444 140.240654,176.990461 140.240654,176.934914 L140.240654,176.59476 Z M140.356993,178.074486 L140.298537,177.760674 L140.279051,177.760674 C140.073882,178.009777 139.753519,178.146068 139.382151,178.146068 C138.74773,178.146068 138.367765,177.683367 138.367765,177.184016 C138.367765,176.369709 139.099613,175.978589 140.210853,175.985461 L140.210853,175.939649 C140.210853,175.774153 140.118584,175.536503 139.638326,175.536503 C139.317964,175.536503 138.978116,175.645307 138.772373,175.774153 L138.593566,175.145956 C138.810771,175.023409 139.241168,174.869939 139.812549,174.869939 C140.857309,174.869939 141.191426,175.485538 141.191426,176.222538 L141.191426,177.312862 C141.191426,177.614649 141.203461,177.901546 141.236701,178.074486 L140.356993,178.074486 Z" id="Fill-90" fill="#221F20" mask="url(#mask-4)"></path>
                <polygon id="Fill-91" fill="#221F20" mask="url(#mask-4)" points="141.972503 178.074658 142.946199 178.074658 142.946199 173.524385 141.972503 173.524385"></polygon>
                <path d="M144.866082,174.043549 L144.866082,174.940318 L145.565836,174.940318 L145.565836,175.657848 L144.866082,175.657848 L144.866082,176.792839 C144.866082,177.171361 144.956058,177.344301 145.250632,177.344301 C145.373275,177.344301 145.470129,177.331703 145.539474,177.318532 L145.546351,178.055532 C145.41855,178.10707 145.187018,178.138566 144.911357,178.138566 C144.597871,178.138566 144.333099,178.030335 144.181228,177.869993 C144.001275,177.683882 143.910152,177.382096 143.910152,176.94001 L143.910152,175.657848 L143.494655,175.657848 L143.494655,174.940318 L143.910152,174.940318 L143.910152,174.261156 L144.866082,174.043549 Z" id="Fill-92" fill="#221F20" mask="url(#mask-4)"></path>
                <path d="M146.198767,173.524614 L147.173036,173.524614 L147.173036,175.312426 L147.185644,175.312426 C147.289375,175.177853 147.41775,175.075921 147.570767,174.991169 C147.71175,174.915007 147.897434,174.869768 148.077387,174.869768 C148.700346,174.869768 149.174299,175.299827 149.174299,176.241836 L149.174299,178.074887 L148.199457,178.074887 L148.199457,176.350067 C148.199457,175.94005 148.059048,175.657733 147.692264,175.657733 C147.436662,175.657733 147.276194,175.824947 147.204557,175.99846 C147.179913,176.062024 147.173036,176.145631 147.173036,176.216067 L147.173036,178.074887 L146.198767,178.074887 L146.198767,173.524614 Z" id="Fill-93" fill="#221F20" mask="url(#mask-4)"></path>
                <path d="M154.89664,177.876407 C154.592897,177.978911 154.023236,178.11921 153.451283,178.11921 C152.662698,178.11921 152.093037,177.921646 151.694733,177.537398 C151.296429,177.164603 151.079225,176.600544 151.084382,175.966048 C151.09126,174.530415 152.136593,173.709809 153.554441,173.709809 C154.113213,173.709809 154.542464,173.818039 154.752792,173.921689 L154.549342,174.703356 C154.310932,174.600851 154.016359,174.517817 153.541833,174.517817 C152.726885,174.517817 152.11023,174.9788 152.11023,175.915082 C152.11023,176.806125 152.670149,177.331817 153.470195,177.331817 C153.695423,177.331817 153.874804,177.305475 153.952745,177.26768 L153.952745,176.362894 L153.285084,176.362894 L153.285084,175.60127 L154.89664,175.60127 L154.89664,177.876407 Z" id="Fill-94" fill="#221F20" mask="url(#mask-4)"></path>
                <path d="M157.353116,176.59476 C156.837899,176.587888 156.440168,176.709862 156.440168,177.087811 C156.440168,177.338059 156.607513,177.458888 156.825864,177.458888 C157.069432,177.458888 157.269443,177.299691 157.333057,177.100409 C157.345665,177.049444 157.353116,176.990461 157.353116,176.934914 L157.353116,176.59476 Z M157.467163,178.074486 L157.410426,177.760674 L157.39094,177.760674 C157.185771,178.009777 156.864835,178.146068 156.493467,178.146068 C155.858473,178.146068 155.479081,177.683367 155.479081,177.184016 C155.479081,176.369709 156.210356,175.978589 157.319876,175.985461 L157.319876,175.939649 C157.319876,175.774153 157.231046,175.536503 156.750215,175.536503 C156.428133,175.536503 156.088858,175.645307 155.883689,175.774153 L155.703736,175.145956 C155.922087,175.023409 156.351911,174.869939 156.922718,174.869939 C157.968051,174.869939 158.301022,175.485538 158.301022,176.222538 L158.301022,177.312862 C158.301022,177.614649 158.31363,177.901546 158.34687,178.074486 L157.467163,178.074486 Z" id="Fill-95" fill="#221F20" mask="url(#mask-4)"></path>
                <path d="M159.085137,175.939878 C159.085137,175.549903 159.072529,175.216049 159.059347,174.940604 L159.880599,174.940604 L159.924154,175.36322 L159.94364,175.36322 C160.078891,175.165083 160.356271,174.870168 160.892692,174.870168 C161.29902,174.870168 161.618236,175.07575 161.754061,175.401587 L161.767242,175.401587 C161.881862,175.241245 162.022844,175.114117 162.170704,175.023638 C162.344353,174.921707 162.535768,174.870168 162.767874,174.870168 C163.370774,174.870168 163.824096,175.292784 163.824096,176.228493 L163.824096,178.074715 L162.875616,178.074715 L162.875616,176.369365 C162.875616,175.915254 162.727184,175.652408 162.413698,175.652408 C162.189043,175.652408 162.030868,175.80645 161.964388,175.991416 C161.938599,176.061852 161.927137,176.164356 161.927137,176.241664 L161.927137,178.074715 L160.976365,178.074715 L160.976365,176.318972 C160.976365,175.921553 160.835956,175.652408 160.527055,175.652408 C160.27833,175.652408 160.129897,175.844245 160.07316,176.004587 C160.04164,176.081895 160.033616,176.170656 160.033616,176.247391 L160.033616,178.074715 L159.085137,178.074715 L159.085137,175.939878 Z" id="Fill-96" fill="#221F20" mask="url(#mask-4)"></path>
                <path d="M166.522592,176.151815 C166.522592,175.915311 166.419434,175.51732 165.972416,175.51732 C165.560358,175.51732 165.394159,175.890115 165.368943,176.151815 L166.522592,176.151815 Z M165.374674,176.818379 C165.406767,177.222097 165.805071,177.41508 166.260112,177.41508 C166.593656,177.41508 166.863013,177.369841 167.125492,177.286807 L167.255013,177.946499 C166.93465,178.074773 166.543796,178.138909 166.119703,178.138909 C165.054884,178.138909 164.44568,177.523311 164.44568,176.542935 C164.44568,175.748097 164.939691,174.870226 166.029153,174.870226 C167.042966,174.870226 167.428662,175.657619 167.428662,176.433559 C167.428662,176.600773 167.408604,176.748516 167.395422,176.818379 L165.374674,176.818379 Z" id="Fill-97" fill="#221F20" mask="url(#mask-4)"></path>
                <path d="M168.041477,177.222326 C168.22143,177.331703 168.592799,177.458831 168.881641,177.458831 C169.176787,177.458831 169.29943,177.356899 169.29943,177.195985 C169.29943,177.036788 169.202004,176.960053 168.837512,176.838079 C168.188764,176.619326 167.938892,176.267147 167.944623,175.895497 C167.944623,175.31254 168.444939,174.869882 169.221489,174.869882 C169.587699,174.869882 169.914366,174.953489 170.107501,175.049121 L169.933278,175.721985 C169.792296,175.64525 169.522366,175.542745 169.253009,175.542745 C169.016319,175.542745 168.881641,175.639523 168.881641,175.799292 C168.881641,175.946463 169.003138,176.023198 169.387688,176.158344 C169.984857,176.363352 170.235302,176.663993 170.241606,177.126694 C170.241606,177.709079 169.779688,178.138566 168.881641,178.138566 C168.470729,178.138566 168.105091,178.049232 167.866682,177.921532 L168.041477,177.222326 Z" id="Fill-98" fill="#221F20" mask="url(#mask-4)"></path>
                <path d="M166.94233,154.521238 C164.986342,154.521238 163.241254,153.742434 162.264119,152.436221 C162.09964,152.724836 160.976365,154.505776 158.279932,154.505776 C155.84254,154.505776 154.204622,152.907511 154.204622,150.528152 C154.204622,149.13146 154.881453,147.710144 156.062611,146.628409 C157.204798,145.581032 158.646143,144.980896 160.016996,144.980896 C161.872692,144.980896 163.141535,145.666357 163.295698,146.329485 C163.395418,146.7584 163.15357,147.359109 163.020611,147.582443 C162.994248,147.627109 162.913441,147.695827 162.814295,147.627682 C162.313979,147.281802 161.486996,146.873503 160.404412,146.873503 C158.549289,146.873503 156.981862,148.389306 156.981862,150.18399 C156.981862,151.238238 157.502809,152.469434 158.970517,152.469434 C160.174599,152.469434 161.277815,151.545178 161.603336,150.107827 C161.791885,149.27405 161.970119,148.384152 163.122049,148.384152 C163.506599,148.384152 163.710049,148.429391 163.802318,148.536477 C163.85447,148.596032 163.87109,148.676203 163.855616,148.787297 C163.814353,149.071904 163.816646,149.355366 163.838423,149.569537 C164.062505,151.794853 165.613312,152.683032 167.083885,152.683032 C167.83178,152.683032 168.914938,152.135007 168.914938,151.144896 C168.914938,150.497229 168.19226,150.129015 167.427745,149.739041 C167.023137,149.532887 166.604774,149.319289 166.268938,149.053579 C166.009324,148.847998 165.342236,148.320015 165.342236,147.242862 C165.342236,146.488682 165.742833,145.83128 166.499324,145.341092 C167.492505,144.698579 169.024973,144.270238 173.275078,144.270238 L174.069394,144.270238 C174.315254,143.324221 174.92102,141.471126 175.772646,140.839494 C176.106763,140.592109 176.613382,140.539998 176.97902,140.539998 C177.440365,140.539998 177.530915,140.58352 177.600833,140.685451 C177.670751,140.78681 177.628915,140.919665 177.588798,141.032477 C176.964692,142.793374 176.694189,143.958716 176.604786,144.387058 L176.842049,144.387058 C176.956669,144.387058 177.133184,144.393357 177.353827,144.400802 C177.716599,144.4134 178.214049,144.430579 178.749324,144.430579 C179.492061,144.430579 179.859991,144.358426 180.080061,144.314904 C180.165453,144.297725 180.226774,144.285699 180.276061,144.285699 C180.321909,144.285699 180.356868,144.296007 180.389535,144.318913 C180.497277,144.392212 180.470915,144.610391 180.464611,144.65334 C180.34254,145.933212 178.117768,146.38446 176.153184,146.387896 C176.033979,146.772716 175.739979,148.913853 175.739979,150.051135 C175.739979,151.304665 176.129113,152.850819 176.645476,153.646802 C176.707944,153.743579 176.7664,153.819742 176.815687,153.883306 C176.922283,154.021887 176.992774,154.113511 176.957242,154.240067 C176.918844,154.376357 176.532002,154.521238 175.889558,154.521238 C174.369125,154.521238 173.416061,152.993409 173.275078,150.330015 C173.192552,148.765537 173.543289,146.687391 173.626388,146.225263 L173.183382,146.225263 C171.872704,146.225263 167.883359,146.225263 167.883359,147.179297 C167.883359,147.613938 168.548727,147.943785 169.252494,148.293674 C169.563113,148.447716 169.884622,148.607485 170.165441,148.783862 C171.218798,149.445272 171.677277,150.267024 171.567242,151.295503 C171.307628,153.709221 168.282809,154.521238 166.94233,154.521238" id="Fill-99" fill="#221F20" mask="url(#mask-4)"></path>
                <path d="M148.748888,146.823052 C147.524174,146.823052 146.292011,148.085172 146.002022,149.636479 C145.829519,150.560736 145.972794,151.33095 146.416946,151.865232 C146.803788,152.330223 147.411274,152.597078 148.084665,152.597078 C149.718572,152.597078 150.513461,151.23818 150.724935,150.078565 C150.909473,149.065548 150.922081,146.823052 148.748888,146.823052 M147.841671,154.52118 C146.343589,154.52118 144.47987,153.889548 143.673519,152.480257 C142.576607,153.394206 140.79656,154.471932 138.500151,154.471932 C134.560092,154.471932 132.014385,152.168163 132.014385,148.60342 C132.014385,144.395591 136.177379,138.944539 142.099215,138.944539 C144.519987,138.944539 145.965344,139.93236 145.965344,141.585599 C145.965344,142.549941 145.842127,143.491377 144.364677,143.491377 C143.559473,143.491377 143.423648,143.398608 143.423648,143.191309 C143.423648,143.059599 143.576665,142.714291 143.576665,142.224676 C143.576665,141.347377 143.025917,140.921326 141.894046,140.921326 C138.528233,140.921326 134.962981,144.488932 134.962981,148.226044 C134.962981,150.001257 135.999145,152.15442 139.163227,152.15442 C141.615519,152.15442 143.163461,150.273266 143.178935,150.254368 C143.299858,147.443804 146.061051,144.964232 149.081858,144.964232 C150.544981,144.964232 151.747917,145.411471 152.559999,146.257274 C153.275227,147.002291 153.627683,148.009582 153.57897,149.16977 C153.56063,149.607274 153.41449,151.143121 152.298665,152.538095 C151.260209,153.835146 149.719145,154.52118 147.841671,154.52118" id="Fill-100" fill="#221F20" mask="url(#mask-4)"></path>
                <path d="M93.3384269,156.771063 C92.8512924,156.771063 92.6197602,156.730405 92.6197602,156.500773 C92.6197602,156.290038 92.9257953,155.845662 93.361924,154.797713 C93.8026374,153.740602 94.0370351,152.832379 93.7676784,152.832379 C93.1974444,152.832379 92.1624269,154.474738 88.8516316,154.474738 C87.3036901,154.474738 85.8646374,153.940456 84.8003918,152.971533 C83.6226725,151.898961 83.0002865,150.388311 83.0002865,148.603935 C83.0002865,144.137268 87.4051287,138.945055 93.0845439,138.945055 C95.5053158,138.945055 96.9506725,139.932303 96.9506725,141.586115 C96.9506725,142.549884 96.826883,143.49132 95.3500058,143.49132 C94.5448012,143.49132 94.4089766,143.395687 94.4089766,143.19526 C94.4089766,143.073285 94.5619942,142.712516 94.5619942,142.224619 C94.5619942,141.347892 94.0112456,140.921268 92.8793743,140.921268 C89.2636901,140.921268 85.9414327,144.760311 85.9414327,148.280961 C85.9414327,150.838986 87.7558655,152.200174 89.8299123,152.200174 C92.3395146,152.200174 94.215269,149.94279 94.215269,147.924773 C94.215269,147.345251 94.1522281,147.270807 94.1522281,147.12879 C94.1522281,146.664371 95.4033041,146.431303 96.1036316,146.431303 C96.7970819,146.431303 97.1690234,146.721063 97.1690234,147.64761 L97.1690234,147.751832 C97.1690234,148.524909 96.8200058,152.140619 95.8864269,154.645388 C95.3385439,156.115379 94.5929415,156.771063 93.4690936,156.771063 L93.3384269,156.771063 Z" id="Fill-101" fill="#221F20" mask="url(#mask-4)"></path>
                <path d="M125.410159,154.520436 C124.398639,154.520436 123.339551,153.702692 123.018042,152.685094 C122.473025,153.541205 120.557726,154.509556 118.813212,154.509556 C115.982674,154.509556 114.223832,152.912436 114.223832,150.341812 C114.223832,147.361744 117.37989,144.962342 119.99265,144.962342 C121.304475,144.962342 122.118849,145.343726 122.118849,145.958179 C122.118849,146.26741 122.063258,146.664829 121.983025,146.924812 C121.964685,146.986085 121.892475,147.053658 121.793329,147.017581 C121.264931,146.824026 120.854019,146.726103 120.378919,146.726103 C118.649878,146.726103 117.015399,148.302607 117.015399,149.96959 C117.015399,151.228274 117.907142,152.565983 119.55996,152.565983 C120.887258,152.565983 121.962966,151.407513 122.400241,150.331504 C122.608276,149.818983 122.683925,148.847197 122.708568,148.527658 L122.713726,148.459513 C122.895972,146.241068 123.444428,143.880607 124.181434,142.144333 C124.822732,140.634829 125.477785,139.712291 126.184989,139.324034 C126.456639,139.174573 127.042919,139.077222 127.79368,139.180299 C128.001142,139.208359 128.118627,139.273068 128.165048,139.368128 C128.20975,139.458607 128.189691,139.577145 128.100861,139.740923 C126.088709,143.139598 124.984919,147.11665 125.21989,150.120769 C125.33451,151.587897 125.659457,152.752667 126.227972,153.688376 C126.363796,153.911709 126.598767,154.156231 126.467527,154.284504 C126.319095,154.428812 125.939703,154.520436 125.410159,154.520436" id="Fill-102" fill="#221F20" mask="url(#mask-4)"></path>
                <path d="M109.894982,149.415036 C109.894982,148.884762 109.955731,148.083626 110.029661,147.628942 C109.297813,147.884344 108.55393,148.020062 108.402632,148.045831 C108.452491,148.351053 108.829018,151.055677 106.848959,152.95172 C105.400737,154.338677 103.54676,154.505891 102.691696,154.505891 C100.299579,154.505891 97.7905497,153.406976 97.7905497,150.322113 C97.7905497,149.494062 98.0117661,148.792566 98.1980234,148.35048 C99.6680234,145.139062 102.821789,144.976429 103.444175,144.976429 C104.129602,144.976429 104.343368,145.260463 104.392655,145.345788 C104.488363,145.51701 104.573181,145.820515 104.43793,146.296959 C104.422456,146.353079 104.37145,146.394882 104.312421,146.400609 C101.479591,146.676053 100.710491,149.120121 100.661205,150.039224 C100.627392,150.665703 100.892737,152.577207 102.798292,152.577207 C105.344573,152.577207 105.593298,149.84166 105.457474,148.964361 C105.435123,148.821771 105.217345,148.49307 105.03338,148.234805 C104.849415,147.975968 104.713018,147.456002 104.849988,146.924583 C104.929649,146.614779 105.134819,146.192737 105.660924,145.939053 C105.948047,145.800472 106.236889,145.730036 106.519427,145.730036 C107.288526,145.730036 107.790561,146.252865 107.862772,146.333036 C108.599205,146.314138 109.949427,145.917865 110.409053,145.583438 C110.402749,145.58172 110.840023,143.804215 112.17993,142.012968 C114.025883,139.544275 115.257474,139.174916 115.905649,139.174916 C116.349801,139.174916 117.286246,139.346711 116.360117,141.868087 C115.258047,144.868198 112.925532,146.609053 112.902035,146.626232 C112.628667,147.169677 112.399427,148.314403 112.399427,149.169369 C112.399427,151.071138 112.884269,152.661959 113.766842,153.855361 C113.91986,154.062087 114.01786,154.205822 113.874012,154.314053 C113.608667,154.513335 112.746725,154.647335 112.105427,154.383916 C110.706491,153.810121 109.894982,151.639207 109.894982,149.415036" id="Fill-103" fill="#221F20" mask="url(#mask-4)"></path>
                <path d="M130.301104,158.689038 C129.14287,158.689038 127.782332,159.634483 127.354227,161.746987 C127.117537,162.924927 127.222987,163.840594 127.668858,164.469363 C128.125046,165.110158 128.926239,165.368423 129.514812,165.368423 C130.854718,165.368423 132.004356,164.090842 132.311537,162.262372 C132.655396,160.200833 132.141899,159.047517 130.741818,158.736568 C130.598543,158.705073 130.45011,158.689038 130.301104,158.689038 M129.755513,167.175132 C129.584157,167.175132 129.409935,167.166543 129.237432,167.150509 C125.213127,166.782295 124.754075,163.656201 124.709373,162.706175 C124.632578,161.204688 125.260122,159.563474 126.346718,158.423902 C127.349642,157.366791 128.627081,156.807885 130.040917,156.807885 C130.740671,156.807885 131.479396,156.939594 132.237607,157.199577 C134.347186,157.921688 135.450402,159.951158 135.04694,162.370603 C134.495046,165.671355 131.917244,167.175132 129.755513,167.175132" id="Fill-104" fill="#221F20" mask="url(#mask-4)"></path>
                <path d="M145.444454,158.696483 C144.706302,158.696483 144.111425,159.077295 143.92746,159.666551 C143.74808,160.243782 144.012851,160.868543 144.596267,161.262526 C144.896571,161.465244 145.659366,161.992654 146.313846,162.515483 C146.43477,162.372321 147.236536,161.528235 147.236536,160.495748 C147.236536,159.827466 146.858863,158.696483 145.444454,158.696483 M144.121167,171.108662 C142.131366,171.108662 139.328337,169.844825 139.328337,167.034261 C139.328337,166.029833 139.751284,165.129628 140.113483,164.664064 C140.515226,164.184184 141.065401,163.63444 141.765729,163.63444 C141.994968,163.63444 142.228793,163.694568 142.459752,163.813679 C143.009927,164.097141 143.507378,164.542662 143.646641,164.672654 C143.682173,164.705868 143.698793,164.754543 143.69077,164.802645 C143.682746,164.850175 143.651226,164.890833 143.607097,164.910303 C143.075261,165.145662 141.839658,165.850021 141.839658,167.298825 C141.839658,168.762517 142.871811,169.199449 143.865565,169.199449 C144.952735,169.198876 145.734442,168.481346 146.103518,167.810201 C146.473167,167.13791 146.508126,166.415226 146.195214,165.923321 C145.510933,164.846167 144.555004,164.172731 143.711974,163.578321 C142.542278,162.753705 141.531904,162.041329 141.531904,160.547286 C141.531904,159.837201 141.842524,159.057825 142.384103,158.40844 C143.025401,157.641662 144.329775,156.822201 146.069132,156.822201 C148.184442,156.822201 149.76505,158.509226 149.76505,160.017585 C149.76505,161.963449 148.386173,163.237021 147.677249,163.741526 C148.535179,164.60909 149.109998,165.842577 149.109998,166.820662 C149.109998,169.185132 146.872044,171.108662 144.121167,171.108662" id="Fill-105" fill="#221F20" mask="url(#mask-4)"></path>
                <path d="M137.860228,169.097918 C136.488801,169.097918 136.191936,168.273875 136.033187,167.614183 C134.929971,163.030696 138.118696,157.668405 138.813865,157.15073 C138.914158,157.078576 139.259164,156.942858 140.06838,156.942858 C140.603082,156.942858 140.924018,157.032191 141.023164,157.209713 C141.11314,157.370627 140.994509,157.557311 140.925737,157.675277 C137.886018,162.763841 137.985164,167.000303 138.169129,168.584824 C138.175433,168.637508 138.178871,168.671294 138.178871,168.685038 C138.181737,168.884892 138.159959,169.081311 137.861947,169.097918 L137.860801,169.097918 L137.860228,169.097918 Z" id="Fill-106" fill="#221F20" mask="url(#mask-4)"></path>
                <path d="M135.78727,170.939903 C134.022697,170.651287 131.51596,170.09639 125.92251,170.09639 C121.466089,170.09639 118.889434,170.427954 117.349516,170.625518 C116.660077,170.714279 116.161481,170.778415 115.777504,170.778415 C115.134487,170.778415 114.809539,170.603185 114.438744,170.05745 C113.867937,169.217373 114.48058,167.977014 115.380346,167.186185 C116.305902,166.373022 117.17472,165.594219 118.454451,164.442048 C119.684323,163.333971 121.319949,161.720817 121.319949,160.505082 C121.319949,159.69192 120.722206,159.225783 119.680884,159.225783 C118.826393,159.225783 117.369001,160.174091 116.936311,161.718526 C116.919118,161.780373 116.861808,161.823894 116.797621,161.823894 C116.788451,161.823894 116.779282,161.823321 116.770112,161.821603 C116.583855,161.784954 116.230253,161.674432 115.955738,161.345159 C115.811317,161.172791 115.579785,160.810877 115.650276,160.323552 C115.919633,158.507108 118.063025,156.790304 120.060276,156.790304 C122.184182,156.790304 123.785995,158.278621 123.785995,160.251971 C123.785995,162.214441 122.651258,163.622586 121.974428,164.287432 C119.96113,166.265937 119.28258,166.829997 117.131165,168.60521 C118.775387,168.289108 122.329177,167.841296 125.051399,167.841296 C127.011972,167.841296 128.500311,167.920894 129.735913,168.092689 C133.784288,168.655031 136.059492,169.467048 136.692194,170.574552 C136.771855,170.737185 136.777013,170.890082 136.701937,170.97827 C136.591902,171.107116 136.474989,171.052142 135.78727,170.939903" id="Fill-107" fill="#221F20" mask="url(#mask-4)"></path>
            </g>
        </g>
    </g>
</svg>